<svg id="Layer_1" data-name="Layer 1" xmlns="http://www.w3.org/2000/svg" xmlns:xlink="http://www.w3.org/1999/xlink" viewBox="0 0 344.13 625.69"><defs><style>.cls-1{fill:none;}.cls-2{fill:url(#linear-gradient);}.cls-3{fill:url(#linear-gradient-2);}.cls-4{fill:url(#linear-gradient-3);}.cls-5{fill:url(#linear-gradient-4);}.cls-6{clip-path:url(#clip-path);}.cls-7{fill:url(#linear-gradient-5);}.cls-10,.cls-12,.cls-8{fill:#09072d;stroke-miterlimit:10;}.cls-8{stroke-width:8.53px;stroke:url(#linear-gradient-6);}.cls-11,.cls-13,.cls-9{opacity:0.72;}.cls-9{fill:url(#radial-gradient);}.cls-10,.cls-12{stroke-width:3.79px;}.cls-10{stroke:url(#linear-gradient-7);}.cls-11{fill:url(#radial-gradient-2);}.cls-12{stroke:url(#linear-gradient-8);}.cls-13{fill:url(#radial-gradient-3);}</style><linearGradient id="linear-gradient" x1="-18.13" y1="600.05" x2="67.98" y2="443.94" gradientUnits="userSpaceOnUse"><stop offset="0.08" stop-color="#900"/><stop offset="1" stop-color="#4c0606"/></linearGradient><linearGradient id="linear-gradient-2" x1="346.54" y1="608.3" x2="268.15" y2="415.52" xlink:href="#linear-gradient"/><linearGradient id="linear-gradient-3" x1="21.25" y1="282.49" x2="304.12" y2="282.49" gradientUnits="userSpaceOnUse"><stop offset="0.01" stop-color="#f2f2f2"/><stop offset="0.18" stop-color="#e6e6e6"/><stop offset="0.76" stop-color="#8599ba"/><stop offset="0.93" stop-color="#51607a"/><stop offset="1" stop-color="#354966"/></linearGradient><linearGradient id="linear-gradient-4" x1="104.99" y1="548.64" x2="243.08" y2="548.64" gradientUnits="userSpaceOnUse"><stop offset="0" stop-color="#4c0606"/><stop offset="0.02" stop-color="#4c0606"/><stop offset="0.46" stop-color="#900"/><stop offset="1" stop-color="#4c0606"/></linearGradient><clipPath id="clip-path"><circle class="cls-1" cx="173.83" cy="42.54" r="104.58"/></clipPath><linearGradient id="linear-gradient-5" x1="44.9" y1="280.53" x2="302.76" y2="280.53" gradientUnits="userSpaceOnUse"><stop offset="0.01" stop-color="#900"/><stop offset="0.18" stop-color="#900"/><stop offset="0.76" stop-color="#4c0606"/><stop offset="1" stop-color="#4c0606"/></linearGradient><linearGradient id="linear-gradient-6" x1="109.63" y1="334.88" x2="238.44" y2="334.88" xlink:href="#linear-gradient"/><radialGradient id="radial-gradient" cx="176.6" cy="349.42" r="97.15" gradientUnits="userSpaceOnUse"><stop offset="0.31" stop-color="#09072d"/><stop offset="1" stop-color="#f2f2f2"/></radialGradient><linearGradient id="linear-gradient-7" x1="143.55" y1="223.98" x2="204.52" y2="223.98" xlink:href="#linear-gradient"/><radialGradient id="radial-gradient-2" cx="175.25" cy="230.9" r="46.18" xlink:href="#radial-gradient"/><linearGradient id="linear-gradient-8" x1="143.55" y1="445.77" x2="204.52" y2="445.77" xlink:href="#linear-gradient"/><radialGradient id="radial-gradient-3" cx="175.25" cy="452.69" r="46.18" xlink:href="#radial-gradient"/></defs><path class="cls-2" d="M51.65,393.12C37.5,407.07,14.85,433.6,4.89,472.86-1,496-.27,514.9.53,532.77a293.5,293.5,0,0,0,19.61,92.6L90.25,499.83S78.54,479,66.58,446.08C54.33,412.37,51.65,393.12,51.65,393.12Z"/><path class="cls-3" d="M291.77,393.64C306,407.5,328.81,433.9,339,473.1c6,23.07,5.4,42,4.7,59.89a293.24,293.24,0,0,1-19.07,92.7L253.8,500.56a569.72,569.72,0,0,0,21.77-52.83C282.39,428.49,287.66,410.33,291.77,393.64Z"/><path class="cls-4" d="M300.75,288.47c13.63,115-68.34,253-68.34,253a98.78,98.78,0,0,1-114.61,3.15,403.37,403.37,0,0,1-41.68-74.34C56.27,424.17,38.41,360.13,46.36,288.47,58.8,155,128,56.61,173.56,3.54,219.37,57.13,287.86,155.34,300.75,288.47Z"/><path class="cls-5" d="M118.39,551C137,567.3,160,567.64,171.88,567.81c12,.17,41.36.6,61.12-19.93,1.32-1.37,10.08-18.46,10.08-18.46s-31.3,15-69.82,15.27A177.67,177.67,0,0,1,105,530.9S112.53,545.91,118.39,551Z"/><g class="cls-6"><path class="cls-7" d="M301.23,286.52c13.63,115-68.35,253-68.35,253a98.78,98.78,0,0,1-114.61,3.15,404,404,0,0,1-41.68-74.34c-19.84-46.13-37.7-110.17-29.75-181.82C59.27,153,128.43,54.66,174,1.59,219.84,55.18,288.33,153.39,301.23,286.52Z"/></g><circle class="cls-8" cx="174.03" cy="334.88" r="60.14"/><circle class="cls-9" cx="174.03" cy="334.88" r="48.43"/><circle class="cls-10" cx="174.03" cy="223.98" r="28.59"/><circle class="cls-11" cx="174.03" cy="223.98" r="23.02"/><circle class="cls-12" cx="174.03" cy="445.77" r="28.59"/><circle class="cls-13" cx="174.03" cy="445.77" r="23.02"/></svg>